<svg xmlns="http://www.w3.org/2000/svg" width="430" height="430" style="width:100%;height:100%;transform:translate3d(0,0,0);content-visibility:visible" viewBox="0 0 430 430"><defs><clipPath id="a"><path d="M0 0h430v430H0z"/></clipPath><clipPath id="g"><path d="M0 0h430v430H0z"/></clipPath><clipPath id="f"><path d="M0 0h430v430H0z"/></clipPath><clipPath id="e"><path d="M0 0h430v430H0z"/></clipPath><clipPath id="d"><path d="M0 0h430v430H0z"/></clipPath><clipPath id="c"><path d="M0 0h430v430H0z"/></clipPath><clipPath id="b"><path d="M0 0h430v430H0z"/></clipPath></defs><g fill="none" clip-path="url(#a)"><g clip-path="url(#b)" style="display:none"><path class="secondary"/><path class="primary"/></g><g clip-path="url(#c)" style="display:none"><path class="secondary"/><path class="primary"/></g><g clip-path="url(#d)" style="display:none"><path class="secondary" style="display:none"/><g style="display:none"><path class="secondary"/><path class="primary"/></g></g><g clip-path="url(#e)" style="display:none"><path class="secondary" style="display:none"/><path class="primary" style="display:none"/><path class="secondary" style="display:none"/></g><g clip-path="url(#f)" style="display:block"><path class="primary" style="display:none"/><path stroke="#07A889" stroke-linecap="round" stroke-linejoin="round" stroke-width="14.956" d="M15.704-4.103C15.704 4.57 8.673 11.6 0 11.6S-15.704 4.57-15.704-4.103-8.673-19.807 0-19.807s15.704 7.031 15.704 15.704" class="secondary" style="display:block" transform="translate(214.989 372.493)scale(.01408)"/></g><g clip-path="url(#g)" style="display:none"><path class="secondary" style="display:none"/><path class="primary" style="display:none"/><path class="secondary" style="display:none"/></g></g></svg>